<?xml version="1.0" encoding="UTF-8"?>
<svg width="14px" height="14px" viewBox="0 0 14 14" version="1.1" xmlns="http://www.w3.org/2000/svg" xmlns:xlink="http://www.w3.org/1999/xlink">
    <!-- Generator: Sketch 63.1 (92452) - https://sketch.com -->
    <title>icon-管理地区</title>
    <desc>Created with Sketch.</desc>
    <g id="09-审批系统4.1.0" stroke="none" stroke-width="1" fill="none" fill-rule="evenodd">
        <g id="08-01-流程详情-选择经办人-增加经办地区" transform="translate(-264.000000, -249.000000)" fill="currentColor" fill-rule="nonzero">
            <g id="编组-4备份-3" transform="translate(248.000000, 240.000000)">
                <g id="icon-管理地区" transform="translate(16.000000, 9.000000)">
                    <g id="形状">
                        <path d="M13.7675955,7.03480939 L13.7675955,7.03476069 C13.748595,10.7448867 10.7459583,13.7479955 7.0358323,13.7675914 L6.9652539,13.7675914 L6.96525405,13.7675914 C3.25473703,13.7485863 0.251447795,10.7453228 0.232423084,7.0348058 L0.232423084,6.96520494 L0.232423084,6.96525857 C0.251425263,3.2547566 3.25464652,0.251482399 6.9651485,0.232412845 L7.0357269,0.232412845 L7.03572727,0.232412845 C10.7458683,0.251949364 13.748556,3.25505738 13.7675955,6.96519842 L13.7675955,7.03479928 L13.7675955,7.03480939 Z M7.45149718,1.12380427 L7.45149718,2.50633186 L7.45149719,2.50632809 C7.45096855,2.73982033 7.26153857,2.92882397 7.02804633,2.92882547 L6.97584568,2.92882547 L6.97584568,2.92882547 C6.74235343,2.92882607 6.55292118,2.73982484 6.5523903,2.5063326 L6.5523903,1.12380427 L6.55239047,1.12380427 C3.6505699,1.34286875 1.34390589,3.64871614 1.12379392,6.55044647 L2.50826154,6.55044647 L2.50826153,6.55044647 C2.74174775,6.55098546 2.93073936,6.74041562 2.93073936,6.97390185 L2.93073936,7.02611753 L2.93073936,7.02611866 C2.93073936,7.25960489 2.74174625,7.44903413 2.50826002,7.44957253 L1.12186739,7.44957253 L1.12186739,7.44957243 C1.34197635,10.3513028 3.64862833,12.6571396 6.55043386,12.8762146 L6.55043386,11.4936863 L6.55043385,11.49369 C6.55096252,11.2601978 6.74039247,11.0711942 6.97388622,11.0711942 L7.0261019,11.0711942 L7.02610192,11.0711942 C7.25959416,11.0711936 7.44902641,11.2601948 7.44955729,11.493687 L7.44955729,12.8762146 L7.44955757,12.8762146 C10.3513631,12.6571343 12.6580121,10.3513035 12.8781451,7.44957312 L11.493691,7.44957312 L11.493691,7.44957312 C11.2601987,7.44904239 11.0711981,7.25960999 11.0711981,7.02611775 L11.0711981,6.97390206 L11.0711981,6.97390103 C11.0711981,6.74040879 11.2602003,6.55097654 11.4936925,6.55044716 L12.8781451,6.55044716 L12.8781451,6.55044693 C12.6580361,3.6487166 10.3513841,1.34287973 7.44957859,1.12380427 L7.45149718,1.12380427 Z M7.00196404,9.53495117 L7.00196397,9.53495117 C5.6003518,9.53602998 4.46324696,8.40067368 4.46216338,6.9990615 C4.46108533,5.59744932 5.59644164,4.46034448 6.99805381,4.4592609 C8.39966599,4.45818286 9.53677083,5.59353916 9.5378544,6.99515134 C9.5378544,6.99676974 9.5378544,6.99838815 9.5378544,7.00000655 L9.5378544,7.00000649 C9.5378544,8.40161867 8.40162167,9.53785124 7.00000799,9.53785124 L7.00196404,9.53495117 Z M7.00196404,5.30520992 L7.00196397,5.30520992 C6.06755585,5.30520992 5.31006747,6.0626983 5.31006747,6.99710642 C5.31006747,7.93151454 6.06755585,8.68900292 7.00196397,8.68900292 C7.93637209,8.68900292 8.69386053,7.93151454 8.69386053,6.99710642 L8.69386053,6.99714613 C8.69228065,6.06310798 7.93408772,5.30705432 7.00005407,5.30810706 L7.00196404,5.30520992 Z"></path>
                    </g>
                </g>
            </g>
        </g>
    </g>
</svg>